<svg xmlns="http://www.w3.org/2000/svg" xmlns:svg="http://www.w3.org/2000/svg" id="svg1720" width="40" height="40" version="1.1" viewBox="0 0 10.583 10.583"><metadata id="metadata1717"/><g id="layer1" transform="translate(0,-286.41666)"><g style="stroke-width:1.25103021" id="g1453" transform="matrix(0.79934117,0,0,0.79934117,-311.4433,112.78619)"><path style="color:#000;fill:#fff;fill-rule:evenodd;stroke-width:3.00000024;stroke-linecap:round" id="path1447" d="m 1320.0254,163.00195 -0.4277,2.28907 a 6.4999807,6.4999807 0 0 0 -1.1446,0.47265 l -1.9199,-1.3164 -2.0898,2.08398 1.3183,1.92383 a 6.4999807,6.4999807 0 0 0 -0.4765,1.14453 l -2.2872,0.42383 v 2.95117 l 2.293,0.42969 a 6.4999807,6.4999807 0 0 0 0.4707,1.14062 l -1.3183,1.92188 2.0898,2.08984 1.9199,-1.31836 a 6.4999807,6.4999807 0 0 0 1.1446,0.47656 l 0.4277,2.28711 h 2.9512 l 0.4257,-2.29297 a 6.4999807,6.4999807 0 0 0 1.1407,-0.4707 l 1.9258,1.31836 2.0839,-2.08984 -1.3144,-1.91797 a 6.4999807,6.4999807 0 0 0 0.4765,-1.14649 l 2.2832,-0.42773 v -2.95117 l -2.289,-0.42383 a 6.4999807,6.4999807 0 0 0 -0.4727,-1.14649 l 1.3164,-1.92187 -2.0839,-2.08398 -1.9219,1.3164 a 6.4999807,6.4999807 0 0 0 -1.1465,-0.47851 l -0.4238,-2.28321 z M 1321.5,168 a 3.5,3.5 0 0 1 3.5,3.5 3.5,3.5 0 0 1 -3.5,3.5 3.5,3.5 0 0 1 -3.5,-3.5 3.5,3.5 0 0 1 3.5,-3.5 z" transform="matrix(0.33100176,0,0,0.33100176,-41.17313,167.06956)"/></g></g></svg>