<svg xmlns="http://www.w3.org/2000/svg" xmlns:svg="http://www.w3.org/2000/svg" id="svg1720" width="40" height="40" version="1.1" viewBox="0 0 10.583 10.583"><metadata id="metadata1717"/><g id="layer1" transform="translate(0,-286.41666)"><path style="color:#000;fill:#fff;fill-rule:evenodd;stroke-width:.79374993;stroke-linecap:round" id="path1443" d="m 4.2358667,290.38577 a 0.2599402,0.26007233 0 0 0 -0.1880156,0.44679 l 0.875703,0.87571 -0.8784912,0.87888 a 0.26007928,0.26021149 0 1 0 0.3685006,0.3673 l 0.8780843,-0.87809 0.8781045,0.87809 a 0.26007212,0.26020433 0 1 0 0.3684804,-0.3673 l -0.8784914,-0.87888 0.875703,-0.87571 a 0.2599402,0.26007233 0 0 0 -0.1891959,-0.44679 0.2599402,0.26007233 0 0 0 -0.1788773,0.0782 l -0.8757233,0.87611 -0.875703,-0.87611 a 0.2599402,0.26007233 0 0 0 -0.1788774,-0.0782 0.2599402,0.26007233 0 0 0 -0.00203,0 z"/></g></svg>