<svg xmlns="http://www.w3.org/2000/svg" xmlns:svg="http://www.w3.org/2000/svg" id="svg1720" width="40" height="40" version="1.1" viewBox="0 0 10.583 10.583"><metadata id="metadata1717"/><g id="layer1" transform="translate(0,-286.41666)"><path style="fill:#fff;fill-rule:evenodd;stroke-width:.79375011;stroke-linecap:round" id="path1686" d="m 5.4262866,289.45954 v 0.53382 a 1.9843764,1.9843764 0 0 0 -0.13229,-0.005 1.9843764,1.9843764 0 0 0 -1.98438,1.98437 1.9843764,1.9843764 0 0 0 1.98438,1.98438 1.9843764,1.9843764 0 0 0 1.9797199,-1.85209 H 6.4763666 a 1.1906262,1.1906262 0 0 1 -1.18237,1.05834 1.1906262,1.1906262 0 0 1 -1.19063,-1.19063 1.1906262,1.1906262 0 0 1 1.19063,-1.19062 1.1906262,1.1906262 0 0 1 0.13229,0.008 v 0.52089 l 1.05833,-0.92604 z"/></g></svg>