<svg xmlns="http://www.w3.org/2000/svg" width="80" height="80" version="1.1" viewBox="0 0 80 80"><rect width="78" height="78" x="1" y="1" style="fill:#cb3e99"/><path d="m 39.97169,19.995288 4.887406,13.038059 13.909958,0.619306 -10.889378,8.677312 3.709425,13.420801 -11.617411,-7.675216 -11.617407,7.675216 3.709426,-13.420801 -10.88938,-8.677312 13.90996,-0.619306 z" style="fill:#fff"/><path style="fill:#fff" d="M 0,0 V 80 H 80 V 0 Z M 40,6 A 34,34 0 0 1 74,40 34,34 0 0 1 40,74 34,34 0 0 1 6,40 34,34 0 0 1 40,6 Z"/></svg>