<svg xmlns="http://www.w3.org/2000/svg" xmlns:svg="http://www.w3.org/2000/svg" width="80" height="80" version="1.1" viewBox="0 0 80 80"><rect width="78" height="78" x="1" y="1" style="fill:#e34e3d"/><path d="m 34,26.0 -8,8 6.011719,6.011719 L 26,44.0 30.332031,48.332038 26,54.0 l 26,26 h 28 v -28 l -26,-26 -5.271484,4.728516 L 44,26.0 39.044922,31.044929 Z" style="fill:rgba(0,0,0,.1)"/><path d="m 26,46 h 8 v 8 h -8 z m 10,0 h 8 v 8 h -8 z m 10,0 h 8 v 8 H 46 Z M 26,36 h 8 v 8 h -8 z m 10,0 h 8 v 8 h -8 z m 10,0 h 8 v 8 h -8 z m 0,-10 h 8 v 8 h -8 z m -10,0 h 8 v 8 h -8 z m -10,0 h 8 v 8 h -8 z" style="fill:#fff"/><path style="fill:#efc53b" d="M 0,0 V 80 H 80 V 0 Z M 40,6 A 34,34 0 0 1 74,40 34,34 0 0 1 40,74 34,34 0 0 1 6,40 34,34 0 0 1 40,6 Z"/></svg>