<svg xmlns="http://www.w3.org/2000/svg" width="80" height="80" version="1.1" viewBox="0 0 80 80"><rect width="78" height="78" x="1" y="1" style="fill:#f83e60"/><path d="m 26,46 h 8 v 8 h -8 z m 10,0 h 8 v 8 h -8 z m 10,0 h 8 v 8 H 46 Z M 26,36 h 8 v 8 h -8 z m 10,0 h 8 v 8 h -8 z m 10,0 h 8 v 8 h -8 z m 0,-10 h 8 v 8 h -8 z m -10,0 h 8 v 8 h -8 z m -10,0 h 8 v 8 h -8 z" style="fill:#fff"/><path style="fill:#fff" d="M 0,0 V 80 H 80 V 0 Z M 40,6 A 34,34 0 0 1 74,40 34,34 0 0 1 40,74 34,34 0 0 1 6,40 34,34 0 0 1 40,6 Z"/></svg>