<svg xmlns="http://www.w3.org/2000/svg" xmlns:svg="http://www.w3.org/2000/svg" id="svg8" width="90" height="100" version="1.1" viewBox="0 0 90 100" style="enable-background:new"><metadata id="metadata5"/><g id="layer1" transform="translate(0,-900)"><g style="fill:silver;stroke-width:22.15587044" id="g1516" transform="matrix(1.061019,0,0,1.061019,-640.07127,426.90793)"><circle style="stroke-width:173.90815735" id="circle1510" cx="628.075" cy="510.607" r="7.849" class="symbol"/><path style="stroke-width:191.4153595" id="path1512" d="m 620.22569,492.53789 a 25.918471,25.918471 0 0 1 25.91847,25.91847 h 8.63949 a 34.557961,34.557961 0 0 0 -34.55796,-34.55797 z" class="symbol"/><path style="stroke-width:191.4153595" id="path1514" d="m 620.22572,475.25889 a 43.197453,43.197453 0 0 1 43.19746,43.19747 h 8.63948 a 51.836944,51.836944 0 0 0 -51.83694,-51.83694 z" class="symbol"/></g><circle style="fill:#e00606;stroke-width:.99999994;stroke-linecap:round;stroke-linejoin:round;paint-order:markers fill stroke" id="path12" cx="44.389" cy="980.255" r="10.255"/><g id="g20" transform="matrix(0.50886598,0.50886598,-0.50886598,0.50886598,558.08927,505.22854)" style="fill:#fff;stroke-width:1.38957357"><rect id="rect14" width="14" height="3" x="-45" y="970" rx="2.084" ry="2.084" style="fill-rule:evenodd;stroke-width:1.38957393;stroke-linejoin:round;paint-order:markers stroke fill"/><rect style="fill-rule:evenodd;stroke-width:1.38957393;stroke-linejoin:round;paint-order:markers stroke fill" id="rect16" width="14" height="3" x="964.5" y="36.5" rx="2.084" ry="2.084" transform="rotate(90)"/></g></g></svg>