<svg xmlns="http://www.w3.org/2000/svg" xmlns:svg="http://www.w3.org/2000/svg" id="svg1720" width="40" height="40" version="1.1" viewBox="0 0 10.583 10.583"><metadata id="metadata1717"/><g style="fill:#fff" id="layer1" transform="translate(0,-286.41666)"><path style="stroke-width:.79374999;stroke-linecap:round;stroke-linejoin:round;paint-order:markers fill stroke" id="path8" d="m 5.2916666,289.75443 a 1.9538211,1.9538211 0 0 0 -1.9538861,1.95389 1.9538211,1.9538211 0 0 0 1.9538861,1.95389 1.9538211,1.9538211 0 0 0 1.9538861,-1.95389 1.9538211,1.9538211 0 0 0 -1.9538861,-1.95389 z m -0.6909139,1.08883 h 5.292e-4 a 0.16996224,0.17004935 0 0 1 0.00103,0 0.16996224,0.17004935 0 0 1 0.116789,0.0512 l 0.5725639,0.57258 0.5725748,-0.57258 a 0.16996224,0.17004935 0 0 1 0.1167889,-0.0512 0.16996224,0.17004935 0 0 1 0.1240234,0.29197 l -0.572575,0.57309 0.5741252,0.57465 A 0.17004764,0.17013478 0 1 1 5.86579,292.52275 L 5.2916652,291.94862 4.71754,292.52275 a 0.17005238,0.1701395 0 1 1 -0.2408121,-0.23978 l 0.5741252,-0.57465 -0.572575,-0.57309 a 0.16996224,0.17004935 0 0 1 0.1224732,-0.29197 z"/></g></svg>